<svg width="1247" height="1247" viewBox="0 0 1247 1247" fill="none" xmlns="http://www.w3.org/2000/svg">
<circle cx="623.5" cy="623.5" r="623.5" fill="#2C3654"/>
<path fill-rule="evenodd" clip-rule="evenodd" d="M975.712 391.833C1104.45 391.833 1208.81 496.193 1208.81 624.929C1208.81 753.665 1104.45 858.027 975.712 858.027C905.255 858.027 842.099 826.764 799.356 777.358C756.614 826.764 693.461 858.027 623.004 858.027C553.318 858.027 490.781 827.438 448.069 778.966C405.355 827.438 342.824 858.027 273.137 858.027C144.401 858.027 40.0413 753.665 40.0413 624.929C40.0413 496.193 144.401 391.833 273.137 391.833C327.242 391.833 377.039 410.271 416.592 441.197C387.58 471.524 366.478 506.592 353.612 540.083C332.648 520.191 304.318 507.988 273.137 507.988C228.132 507.988 189.067 533.418 169.517 570.687H326.579V679.548H169.717C189.331 716.615 228.281 741.875 273.137 741.875C336.056 741.875 387.363 692.183 389.971 629.905C389.934 628.251 389.908 626.595 389.908 624.929C389.908 623.223 389.934 621.528 389.971 619.828C389.761 615.022 389.261 610.291 388.49 605.651C392.708 566.164 405.955 531.022 426.462 499.559C431.754 491.279 437.56 483.365 443.822 475.846C445.196 474.161 446.591 472.487 448.008 470.828L448.069 470.894C483.004 431.249 531.2 403.574 585.72 394.806C519.212 422.33 472.419 487.844 472.419 564.296C472.419 643.984 536.997 741.875 623.004 741.875C687.589 741.875 739.945 689.516 739.945 624.929C739.945 619.51 739.569 614.178 738.857 608.952C743.951 560.417 762.672 518.434 791.754 481.775C834.407 427.043 900.944 391.833 975.712 391.833V391.833ZM1013.65 755.778L996.688 758.754L996.517 758.778C972.86 762.223 942.322 758.156 920.917 747.288C918.909 746.268 916.999 745.651 914.972 744.465C913.274 743.47 911.513 742.614 909.817 741.591C885.475 726.905 866.2 707.447 854.161 681.461C843.429 658.302 841.165 642.318 841.165 616.973C841.165 594.681 849.308 570.673 860.669 551.715C862.743 548.253 864.934 544.872 867.356 541.642C871.974 535.479 876.966 529.739 882.379 524.265C888.878 517.688 898.195 510.986 905.953 505.875C917.768 498.088 933.466 491.997 947.228 488.732C971.072 483.077 1001.49 484.036 1024.35 493.106C1032.73 496.432 1039.52 499.164 1047.37 503.802C1073.14 519.037 1090.81 539.553 1103.76 566.45C1118.76 597.593 1119.43 638.481 1107.07 670.641C1106.62 671.788 1105.87 673.22 1105.54 674.35L1104.12 680.485C1105.26 681.044 1106.37 681.554 1107.43 681.995L1115.9 683.971V706.113L1104.88 706.357C1100.18 707.142 1094.41 708.845 1088.97 710.509L1092.79 715.7C1097.38 722.08 1102.27 728.22 1106.64 734.756L1112.92 744.136L1070.27 775.877L1045.74 742.257C1045.59 742.482 1045.44 742.704 1045.3 742.921C1042.83 746.627 1039.21 751.403 1037.17 755.336L1035.06 763.265H1015.32L1013.65 755.778V755.778Z" fill="#FEFEFE"/>
<path fill-rule="evenodd" clip-rule="evenodd" d="M678.153 398.404C711.611 406.526 742.247 421.868 768.322 442.687C739.125 472.814 717.798 507.765 704.678 541.249C683.603 520.673 654.786 507.99 623.004 507.99C560.131 507.99 508.856 557.606 506.177 619.815C506.214 621.518 506.233 623.223 506.233 624.931C506.233 626.592 506.207 628.246 506.17 629.9C506.336 633.811 506.69 637.673 507.229 641.476C450.065 531.688 529.17 396.919 655.784 396.919C663.369 396.919 670.836 397.426 678.153 398.404Z" fill="#D8CA96"/>
<path fill-rule="evenodd" clip-rule="evenodd" d="M888.169 681.118C895.53 677.588 918.833 672.343 926.656 670.52C926.854 672.897 927.971 676.112 928.686 678.532C936.195 703.95 951.53 726.009 951.757 726.855C934.365 722.805 915.944 712.079 903.636 700.235L893.922 689.313C891.865 686.785 889.653 683.921 888.169 681.118ZM920.521 622.551C920.521 632.893 922.753 649.416 922.753 653.229C919.381 653.304 904.69 657.24 900.55 658.359L879.245 664.944C878.738 662.765 875.433 654.995 873.659 647.659C869.46 630.299 869.839 610.107 874.847 593.054C875.513 590.786 876.479 588.029 877.013 585.738C879.041 586.209 880.507 586.812 882.429 587.573L898.879 592.879C906.744 595.008 914.11 596.682 922.194 598.565C922.194 601.837 920.521 614.854 920.521 622.551ZM977.973 516.015C986.37 528.557 989.104 529.35 997.867 546.878C1003.6 558.349 1008.79 570.322 1012 584.065C996.223 585.377 994.518 586.294 976.855 586.294C969.107 586.294 959.429 585.989 951.513 584.865C948.922 584.496 945.817 584.065 943.389 584.065C945.343 575.68 949.544 563.126 953.245 555.431C957.819 545.907 960.791 539.586 966.812 530.511C968.902 527.359 975.355 517.767 977.973 516.015V516.015ZM924.983 580.717C922.631 580.717 916.688 579.066 914.385 578.488L894.417 572.796C891.299 571.932 888.313 570.376 884.822 569.561C891.219 557.471 902.129 545.263 912.79 537.288C917.432 533.812 925.885 528.169 931.301 525.678C935.019 523.971 938.02 522.792 941.952 521.27L953.431 517.689L940.972 539.257C939.52 542.172 938.556 544.324 937.244 547.242C933.431 555.731 928.947 567.051 926.773 576.37C926.466 577.685 926.144 580.717 924.983 580.717V580.717ZM1001.4 517.689C1012.54 517.935 1033.97 529.847 1043.15 536.734C1051.61 543.077 1059.78 551.182 1065.77 559.852C1067.23 561.969 1071.18 567.414 1071.68 569.561C1070.04 569.944 1068.53 570.713 1066.73 571.31C1052.14 576.155 1045.39 577.653 1029.85 581.276C1029.01 579.529 1028.12 574.955 1027.42 572.545C1021.27 551.313 1013.46 535.698 1001.4 517.689V517.689ZM853.03 616.974C853.03 641.446 855.016 655.083 864.925 676.473C876.028 700.432 893.778 718.056 915.946 731.432C917.676 732.473 919.203 733.193 920.962 734.223C922.694 735.235 924.368 735.733 926.288 736.709C944.382 745.896 972.305 750.314 994.806 747.038L1008.09 744.706C1008.09 741.776 1004.38 726.684 1003.49 722.535L998.611 700.642C997.091 701.754 997.172 702.486 996.191 704.357C995.406 705.863 994.815 706.697 993.905 708.207L983.55 722.952C981.786 725.211 979.778 728.063 977.414 729.646C976.494 728.268 975.914 727.953 974.76 726.721C973.586 725.467 973.186 724.713 971.978 723.367C963.73 714.152 954.955 697.483 950.322 685.9C948.768 682.016 944.846 671.806 944.507 667.732L966.494 665.734C972.447 664.834 984.169 665.5 990.802 665.5L987.521 651.489C986.601 646.713 987.633 647.652 976.299 647.652C973.23 647.652 969.983 647.391 966.968 647.803L940.601 649.882C940.471 648.34 940.145 646.483 939.871 644.476L938.398 625.869C937.925 620.178 939.947 605.601 940.045 601.356C948.454 603.315 963.355 603.181 968.168 603.908L1015.34 601.912C1015.34 606.216 1016.5 610.368 1016.47 615.291C1016.44 620.314 1016.46 625.34 1016.46 630.36C1019.46 631.058 1022.22 633.256 1025.01 634.644C1028.23 636.249 1030.73 637.686 1033.75 639.284C1033.89 637.54 1034.31 637.303 1034.31 635.381V614.742C1034.31 608.553 1033.19 604.335 1033.19 598.565C1039.82 598.565 1065.82 590.454 1073.71 587.765C1075.94 587.004 1077.25 586.26 1079.49 585.738C1083.32 593.713 1086.18 613.62 1086.18 622.551C1086.18 629.214 1085.06 638.355 1083.82 644.173C1083.19 647.084 1082.31 650.801 1081.37 653.992C1080.49 656.939 1078.6 660.604 1078.37 663.27C1083.62 666.044 1088.75 668.862 1093.99 671.635C1094.4 669.894 1095.29 668.196 1095.99 666.383C1107.39 636.73 1106.4 599.283 1093.07 571.598C1080.96 546.456 1064.8 527.891 1041.33 514.017C1033.08 509.14 1028.73 507.611 1019.97 504.137C999.624 496.064 971.676 495.13 949.966 500.28C937.612 503.21 922.907 508.911 912.48 515.783C906.081 519.999 896.166 527.193 890.816 532.607C885.74 537.742 881.231 542.911 876.85 548.759C874.652 551.691 872.703 554.716 870.846 557.815C861.451 573.494 853.03 595.687 853.03 616.974V616.974Z" fill="#D8CA96"/>
<path fill-rule="evenodd" clip-rule="evenodd" d="M1024.83 751.401H1025.94C1026.47 749.405 1033.8 738.783 1035.43 736.339C1037.07 733.878 1043.9 722.985 1045.47 721.838C1047.64 725.078 1049.9 727.937 1052.32 731.157L1072.8 759.21L1096.78 741.36C1092.44 734.878 1087.82 729.113 1083.16 722.631L1069.45 703.988C1071.14 703.178 1075.34 702.222 1077.62 701.558C1081.64 700.394 1101.48 694.564 1104.03 694.508V693.39C1101.07 692.7 1069.91 675.184 1064.98 672.756L1025.76 651.735C1021.33 649.256 1017.33 646.973 1012.73 644.684L999.727 637.612C999.727 640.349 1000.43 642.12 1000.98 644.723L1024.83 751.401Z" fill="#D8CA96"/>
</svg>
