<svg width="478" height="478" viewBox="0 0 478 478" fill="none" xmlns="http://www.w3.org/2000/svg">
<circle cx="239" cy="239" r="239" fill="#FEFEFE"/>
<path fill-rule="evenodd" clip-rule="evenodd" d="M374.01 150.197C423.357 150.197 463.361 190.201 463.361 239.548C463.361 288.895 423.357 328.899 374.01 328.899C347.002 328.899 322.794 316.915 306.409 297.977C290.025 316.915 265.818 328.899 238.81 328.899C212.098 328.899 188.126 317.173 171.754 298.593C155.381 317.173 131.411 328.899 104.699 328.899C55.3519 328.899 15.3486 288.895 15.3486 239.548C15.3486 190.201 55.3519 150.197 104.699 150.197C125.439 150.197 144.527 157.265 159.688 169.12C148.567 180.744 140.478 194.187 135.546 207.025C127.511 199.399 116.651 194.722 104.699 194.722C87.4477 194.722 72.4733 204.47 64.9791 218.756H125.184V260.484H65.0559C72.5743 274.693 87.5047 284.375 104.699 284.375C128.817 284.375 148.484 265.328 149.484 241.455C149.47 240.821 149.459 240.186 149.459 239.548C149.459 238.894 149.47 238.244 149.484 237.592C149.403 235.75 149.212 233.937 148.916 232.158C150.533 217.022 155.611 203.551 163.471 191.491C165.5 188.317 167.725 185.284 170.126 182.401C170.652 181.755 171.187 181.114 171.731 180.478L171.754 180.503C185.145 165.306 203.62 154.698 224.518 151.337C199.024 161.887 181.088 187 181.088 216.306C181.088 246.852 205.842 284.375 238.81 284.375C263.567 284.375 283.636 264.305 283.636 239.548C283.636 237.471 283.492 235.427 283.219 233.424C285.171 214.819 292.347 198.726 303.495 184.674C319.845 163.694 345.35 150.197 374.01 150.197V150.197ZM388.551 289.705L382.05 290.846L381.985 290.855C372.917 292.175 361.211 290.616 353.006 286.45C352.236 286.06 351.504 285.823 350.727 285.368C350.076 284.987 349.401 284.659 348.751 284.267C339.42 278.637 332.032 271.179 327.417 261.218C323.303 252.34 322.435 246.213 322.435 236.498C322.435 227.953 325.557 218.75 329.912 211.483C330.707 210.156 331.546 208.86 332.475 207.622C334.245 205.26 336.159 203.06 338.234 200.961C340.725 198.44 344.296 195.871 347.27 193.912C351.799 190.927 357.816 188.592 363.091 187.341C372.231 185.173 383.89 185.541 392.653 189.018C395.865 190.292 398.469 191.34 401.476 193.117C411.356 198.957 418.13 206.822 423.094 217.132C428.843 229.07 429.101 244.742 424.361 257.07C424.191 257.51 423.901 258.059 423.777 258.492L423.23 260.844C423.668 261.058 424.093 261.253 424.499 261.422L427.746 262.18V270.667L423.523 270.761C421.721 271.062 419.508 271.715 417.426 272.352L418.889 274.342C420.648 276.788 422.52 279.141 424.198 281.647L426.605 285.242L410.258 297.409L400.851 284.522C400.795 284.608 400.739 284.693 400.684 284.777C399.737 286.197 398.351 288.028 397.57 289.535L396.759 292.575H389.193L388.551 289.705V289.705Z" fill="#2C3654"/>
<path fill-rule="evenodd" clip-rule="evenodd" d="M259.949 152.716C272.775 155.829 284.518 161.711 294.513 169.691C283.321 181.239 275.146 194.637 270.117 207.471C262.039 199.584 250.993 194.723 238.81 194.723C214.709 194.723 195.055 213.742 194.028 237.588C194.042 238.24 194.049 238.894 194.049 239.548C194.049 240.185 194.039 240.819 194.025 241.453C194.089 242.952 194.224 244.433 194.431 245.891C172.519 203.807 202.842 152.147 251.375 152.147C254.282 152.147 257.145 152.341 259.949 152.716Z" fill="#D8CA96"/>
<path fill-rule="evenodd" clip-rule="evenodd" d="M340.453 261.086C343.274 259.733 352.207 257.722 355.206 257.024C355.282 257.935 355.71 259.167 355.984 260.095C358.862 269.838 364.741 278.293 364.827 278.618C358.161 277.066 351.1 272.954 346.382 268.414L342.658 264.227C341.87 263.258 341.022 262.161 340.453 261.086ZM352.854 238.636C352.854 242.6 353.71 248.934 353.71 250.396C352.417 250.425 346.786 251.933 345.199 252.362L337.032 254.886C336.838 254.051 335.571 251.073 334.891 248.261C333.282 241.606 333.427 233.866 335.346 227.329C335.602 226.46 335.972 225.403 336.177 224.525C336.954 224.706 337.516 224.936 338.253 225.228L344.558 227.262C347.573 228.079 350.396 228.72 353.496 229.442C353.496 230.696 352.854 235.686 352.854 238.636ZM374.876 197.799C378.095 202.606 379.143 202.91 382.502 209.629C384.701 214.026 386.691 218.616 387.919 223.884C381.872 224.387 381.219 224.738 374.448 224.738C371.478 224.738 367.768 224.621 364.734 224.19C363.741 224.049 362.55 223.884 361.62 223.884C362.369 220.669 363.979 215.857 365.398 212.908C367.151 209.257 368.29 206.834 370.598 203.355C371.4 202.147 373.873 198.47 374.876 197.799V197.799ZM354.564 222.601C353.663 222.601 351.385 221.967 350.502 221.746L342.848 219.564C341.653 219.233 340.508 218.636 339.17 218.324C341.622 213.69 345.804 209.01 349.891 205.953C351.67 204.621 354.91 202.458 356.986 201.503C358.412 200.848 359.562 200.397 361.069 199.813L365.469 198.44L360.693 206.708C360.137 207.825 359.767 208.65 359.264 209.769C357.803 213.023 356.084 217.362 355.251 220.934C355.133 221.438 355.009 222.601 354.564 222.601V222.601ZM383.857 198.44C388.126 198.535 396.342 203.101 399.861 205.741C403.103 208.172 406.236 211.279 408.532 214.602C409.092 215.414 410.604 217.501 410.796 218.324C410.169 218.471 409.59 218.766 408.9 218.995C403.306 220.852 400.718 221.426 394.76 222.815C394.44 222.145 394.098 220.392 393.831 219.468C391.474 211.329 388.479 205.344 383.857 198.44V198.44ZM326.983 236.499C326.983 245.879 327.745 251.106 331.543 259.306C335.799 268.49 342.603 275.245 351.101 280.372C351.764 280.772 352.349 281.047 353.023 281.442C353.687 281.83 354.329 282.021 355.065 282.395C362.001 285.917 372.704 287.61 381.329 286.354L386.422 285.46C386.422 284.337 384.997 278.553 384.658 276.962L382.788 268.57C382.205 268.996 382.236 269.277 381.86 269.994C381.559 270.571 381.333 270.891 380.984 271.47L377.014 277.122C376.338 277.988 375.568 279.081 374.662 279.688C374.31 279.159 374.087 279.039 373.645 278.567C373.195 278.086 373.042 277.797 372.579 277.281C369.417 273.749 366.053 267.359 364.278 262.919C363.682 261.43 362.178 257.517 362.048 255.955L370.477 255.189C372.758 254.844 377.252 255.099 379.794 255.099L378.537 249.729C378.184 247.898 378.58 248.258 374.235 248.258C373.059 248.258 371.814 248.158 370.658 248.316L360.551 249.113C360.501 248.522 360.376 247.81 360.272 247.04L359.707 239.908C359.525 237.726 360.301 232.139 360.338 230.512C363.561 231.263 369.273 231.211 371.118 231.49L389.202 230.725C389.202 232.375 389.643 233.966 389.632 235.853C389.621 237.779 389.629 239.705 389.629 241.63C390.778 241.897 391.838 242.74 392.905 243.272C394.141 243.887 395.1 244.438 396.257 245.05C396.313 244.382 396.471 244.291 396.471 243.554V235.643C396.471 233.27 396.043 231.654 396.043 229.442C398.582 229.442 408.55 226.333 411.574 225.302C412.431 225.01 412.931 224.725 413.789 224.525C415.257 227.582 416.355 235.213 416.355 238.636C416.355 241.19 415.927 244.694 415.449 246.924C415.21 248.04 414.872 249.465 414.509 250.688C414.175 251.818 413.447 253.223 413.362 254.245C415.373 255.308 417.338 256.388 419.349 257.451C419.504 256.784 419.847 256.133 420.115 255.438C424.485 244.071 424.105 229.717 418.995 219.105C414.354 209.467 408.158 202.351 399.161 197.033C395.998 195.164 394.332 194.577 390.975 193.246C383.176 190.151 372.463 189.793 364.141 191.767C359.406 192.89 353.769 195.076 349.772 197.71C347.319 199.326 343.519 202.084 341.468 204.159C339.522 206.127 337.794 208.109 336.114 210.35C335.272 211.474 334.524 212.634 333.813 213.821C330.212 219.832 326.983 228.339 326.983 236.499V236.499Z" fill="#D8CA96"/>
<path fill-rule="evenodd" clip-rule="evenodd" d="M392.837 288.027H393.264C393.468 287.262 396.275 283.19 396.899 282.253C397.529 281.31 400.147 277.134 400.748 276.695C401.58 277.937 402.446 279.033 403.375 280.267L411.225 291.02L420.418 284.178C418.754 281.693 416.983 279.483 415.196 276.999L409.942 269.853C410.589 269.542 412.198 269.175 413.072 268.921C414.613 268.475 422.218 266.24 423.197 266.219V265.79C422.063 265.526 410.116 258.811 408.229 257.881L393.195 249.823C391.498 248.873 389.962 247.997 388.202 247.12L383.215 244.409C383.215 245.459 383.484 246.137 383.696 247.135L392.837 288.027Z" fill="#D8CA96"/>
</svg>
